<?xml version="1.0" encoding="iso-8859-1"?>
<!-- Generator: Adobe Illustrator 19.0.0, SVG Export Plug-In . SVG Version: 6.00 Build 0)  -->
<svg version="1.1" id="Capa_1" xmlns="http://www.w3.org/2000/svg" xmlns:xlink="http://www.w3.org/1999/xlink" x="0px" y="0px"
	 viewBox="0 0 512 512" style="enable-background:new 0 0 512 512;" xml:space="preserve">
<g>
	<g>
		<polygon points="362.069,171.142 340.858,149.931 256,234.789 171.142,149.931 149.931,171.142 234.789,256 149.931,340.858 
			171.142,362.069 256,277.211 340.858,362.069 362.069,340.858 277.211,256 		"/>
	</g>
</g>
<g>
	<g>
		<path d="M256,0C115.39,0,0,115.39,0,256s115.39,256,256,256s256-115.39,256-256S396.61,0,256,0z M404.491,340.858l-63.633,63.633
			L256,319.633l-84.858,84.858l-63.633-63.633L192.367,256l-84.858-84.858l63.633-63.633L256,192.367l84.858-84.858l63.633,63.633
			L319.633,256L404.491,340.858z"/>
	</g>
</g>
<g>
</g>
<g>
</g>
<g>
</g>
<g>
</g>
<g>
</g>
<g>
</g>
<g>
</g>
<g>
</g>
<g>
</g>
<g>
</g>
<g>
</g>
<g>
</g>
<g>
</g>
<g>
</g>
<g>
</g>
</svg>
