<?xml version="1.0" encoding="iso-8859-1"?>
<!-- Generator: Adobe Illustrator 19.0.0, SVG Export Plug-In . SVG Version: 6.00 Build 0)  -->
<svg version="1.1" id="Capa_1" xmlns="http://www.w3.org/2000/svg" xmlns:xlink="http://www.w3.org/1999/xlink" x="0px" y="0px"
	 viewBox="0 0 512 512" style="enable-background:new 0 0 512 512;" xml:space="preserve">
<g>
	<g>
		<path d="M436.812,75.188C388.327,26.702,324.113,0,256,0S123.673,26.702,75.188,75.188C26.702,123.673,0,187.887,0,256
			s26.702,132.327,75.188,180.812C123.673,485.298,187.887,512,256,512s132.327-26.702,180.812-75.188
			C485.298,388.327,512,324.113,512,256S485.298,123.673,436.812,75.188z M256,482C131.383,482,30,380.617,30,256S131.383,30,256,30
			s226,101.383,226,226S380.617,482,256,482z"/>
	</g>
</g>
<g>
	<g>
		<path d="M404.493,171.147l-63.64-63.639L256,192.36l-84.853-84.853l-63.64,63.64L192.36,256l-84.853,84.853l63.64,63.64
			L256,319.64l84.853,84.853l63.64-63.64L319.64,256L404.493,171.147z M362.066,340.853l-21.213,21.213L256,277.213l-84.853,84.853
			l-21.213-21.213L234.787,256l-84.853-84.853l21.213-21.213L256,234.787l84.853-84.853l21.213,21.213L277.213,256L362.066,340.853z
			"/>
	</g>
</g>
<g>
</g>
<g>
</g>
<g>
</g>
<g>
</g>
<g>
</g>
<g>
</g>
<g>
</g>
<g>
</g>
<g>
</g>
<g>
</g>
<g>
</g>
<g>
</g>
<g>
</g>
<g>
</g>
<g>
</g>
</svg>
